<?xml version="1.0" encoding="utf-8"?>
<!-- Generator: Adobe Illustrator 16.0.4, SVG Export Plug-In . SVG Version: 6.00 Build 0)  -->
<!DOCTYPE svg PUBLIC "-//W3C//DTD SVG 1.1//EN" "http://www.w3.org/Graphics/SVG/1.1/DTD/svg11.dtd">
<svg version="1.1" id="Layer_1" xmlns="http://www.w3.org/2000/svg" xmlns:xlink="http://www.w3.org/1999/xlink" x="0px" y="0px"
	 width="99.035px" height="99.036px" viewBox="0 0 99.035 99.036" enable-background="new 0 0 99.035 99.036" xml:space="preserve">
<path fill="#C55219" d="M98.869,89.036c0,5.522-4.477,10-10,10H9.834c-5.523,0-10-4.478-10-10V10c0-5.523,4.477-10,10-10h79.035
	c5.523,0,10,4.477,10,10V89.036z"/>
<g>
	<path fill="#FFFFFF" stroke="#FFFFFF" stroke-width="0.75" stroke-miterlimit="10" d="M27.709,28.995
		c-2.748,0-5.78,0.119-8.17,0.119c-2.27,0-6.303-0.119-7.498-0.119v1.099l2.092,0.359c2.928,0.538,3.465,2.147,3.465,9.197v19.872
		c0,7.051-0.537,8.484-3.465,9.021l-2.092,0.357v1.079c1.195,0,6.482-0.12,8.693-0.12c2.809,0,3.51,0.18,9.365,0.18
		c12.606,0,21.271-6.707,21.271-20.209C51.371,36.507,42.289,28.995,27.709,28.995z M30.999,68.413c-5.796,0-7.143-1.521-7.143-7.32
		V31.05c0.82-0.175,1.991-0.293,3.396-0.293c10.773,0,17.038,6.729,17.038,19.376C44.291,62.604,38.846,68.413,30.999,68.413z"/>
	<path fill="#FFFFFF" stroke="#FFFFFF" stroke-width="0.75" stroke-miterlimit="10" d="M68.832,52.514
		c7.094,0.023,17.047-1.76,17.047-11.929c0-7.707-5.27-11.471-14.172-11.471c-2.748,0-4.621,0.06-6.832,0.06
		c-2.27,0-8.08-0.119-9.334-0.119v1.091l2.09,0.358c2.928,0.538,3.467,1.972,3.467,9.021v20.081c0,7.051-0.539,8.484-3.467,9.021
		l-2.09,0.358v1.054c1.254,0,6.943-0.119,9.154-0.119s7.908,0.119,9.043,0.119v-1.054l-2.15-0.358
		c-3.824-0.656-4.48-1.553-4.48-9.021v-7.092H68.832z M67.227,30.99c1.289-0.292,1.697-0.469,3.455-0.469
		c5.209,0,8.664,3.455,8.664,10.423c0,7.281-4.096,9.504-9.334,9.98l-2.785,0.135V30.99z"/>
</g>
</svg>
